<?xml version="1.0" standalone="no"?>
<!DOCTYPE svg PUBLIC "-//W3C//DTD SVG 20010904//EN"
 "http://www.w3.org/TR/2001/REC-SVG-20010904/DTD/svg10.dtd">
<svg version="1.0" xmlns="http://www.w3.org/2000/svg"
 width="700.000000pt" height="700.000000pt" viewBox="0 0 700.000000 700.000000"
 preserveAspectRatio="xMidYMid meet">
<metadata>
Created by potrace 1.14, written by Peter Selinger 2001-2017
</metadata>
<g transform="translate(0.000000,700.000000) scale(0.100000,-0.100000)"
fill="#000000" stroke="none">
<path d="M1590 6663 c-347 -36 -694 -222 -927 -498 -137 -162 -259 -404 -298
-590 -3 -14 -7 -36 -10 -50 -3 -14 -8 -37 -12 -53 -4 -15 -9 -889 -10 -1942
-2 -2077 -5 -1979 52 -2175 139 -478 525 -855 1005 -980 85 -22 92 -24 225
-40 52 -7 3717 -6 3775 0 49 6 123 18 188 31 12 2 59 16 104 30 447 141 801
505 932 958 28 94 31 108 45 208 6 37 10 851 10 1938 0 1556 -2 1890 -14 1965
-85 546 -480 996 -1010 1150 -195 56 -103 54 -2140 53 -1034 -1 -1896 -3
-1915 -5z m3860 -227 c395 -70 726 -324 894 -687 35 -75 78 -211 90 -279 17
-98 19 -335 19 -2010 -1 -1654 -2 -1823 -17 -1910 -56 -313 -221 -581 -477
-770 -140 -104 -354 -195 -504 -214 -27 -4 -66 -9 -85 -13 -19 -3 -863 -6
-1875 -6 -1411 0 -1859 3 -1920 13 -545 84 -957 513 -1021 1063 -9 73 -9 3655
0 3747 55 581 536 1044 1121 1079 61 3 913 5 1895 5 1615 -1 1794 -3 1880 -18z"/>
<path d="M2270 5629 c-169 -11 -280 -60 -396 -175 -79 -77 -142 -190 -166
-294 -9 -42 -12 -424 -12 -1645 0 -875 3 -1611 6 -1637 25 -183 157 -362 328
-445 47 -22 112 -46 145 -53 46 -10 348 -13 1320 -12 693 0 1280 3 1304 7 117
18 235 79 325 169 98 96 157 214 175 348 3 29 6 370 6 758 -1 779 0 757 -67
898 -44 94 -138 199 -222 247 -56 33 -161 73 -215 82 -20 3 -335 5 -701 5
-650 0 -666 -1 -724 -21 -269 -96 -345 -431 -143 -632 56 -55 130 -94 202
-105 28 -4 286 -8 575 -8 l525 -1 3 -491 2 -492 -1040 0 -1040 0 0 1368 0
1368 1208 0 c1336 0 1243 -4 1354 64 226 139 226 491 1 636 -105 67 -26 64
-1407 65 -688 1 -1294 -1 -1346 -4z m2611 -232 c45 -21 68 -46 84 -94 25 -73
0 -146 -66 -190 l-40 -26 -1272 -1 c-1256 -1 -1272 -1 -1299 -21 -15 -11 -32
-36 -37 -55 -6 -21 -9 -638 -9 -1520 0 -1627 -3 -1532 59 -1562 43 -21 2360
-20 2401 1 56 28 55 18 55 696 0 506 -3 629 -14 652 -28 60 -3 57 -668 59
-409 1 -619 5 -636 12 -144 58 -129 270 22 309 19 5 322 8 674 7 634 -1 641
-1 698 -23 111 -43 195 -131 234 -245 16 -46 17 -115 18 -761 1 -503 -2 -723
-11 -755 -33 -131 -121 -226 -254 -276 -41 -15 -158 -17 -1285 -18 -682 -1
-1263 2 -1292 6 -152 19 -283 140 -318 293 -8 36 -11 479 -10 1635 l1 1585 22
56 c42 106 111 178 214 222 29 13 73 25 98 26 25 2 46 4 47 4 1 1 575 2 1276
1 1160 0 1277 -2 1308 -17z"/>
</g>
</svg>
